<?xml version="1.0" encoding="utf-8"?>
<!-- Generator: Adobe Illustrator 14.0.0, SVG Export Plug-In . SVG Version: 6.00 Build 43363)  -->
<!DOCTYPE svg PUBLIC "-//W3C//DTD SVG 1.1//EN" "http://www.w3.org/Graphics/SVG/1.1/DTD/svg11.dtd">
<svg version="1.1" id="Layer_1" xmlns="http://www.w3.org/2000/svg" xmlns:xlink="http://www.w3.org/1999/xlink" x="0px" y="0px"
	 width="28px" height="28px" viewBox="242 242 28 28" enable-background="new 242 242 28 28" xml:space="preserve">
<rect x="242" y="242" fill="#CA3737" width="28" height="28"/>
<path fill="#FFFFFF" d="M265.477,251.347c0-0.085,0-0.17-0.085-0.255v-0.084c-0.254-0.764-0.933-1.273-1.781-1.273h0.17
	c0,0-3.311-0.509-7.808-0.509c-4.413,0-7.807,0.509-7.807,0.509h0.169c-0.849,0-1.527,0.509-1.781,1.273v0.084
	c0,0.085,0,0.17-0.085,0.255c-0.084,0.849-0.339,2.63-0.339,4.667c0,2.037,0.255,3.818,0.339,4.668c0,0.085,0,0.169,0.085,0.254
	v0.085c0.254,0.764,0.933,1.273,1.781,1.273h-0.169c0,0,3.31,0.508,7.807,0.508c4.412,0,7.808-0.508,7.808-0.508h-0.17
	c0.849,0,1.527-0.51,1.781-1.273v-0.085c0-0.085,0-0.169,0.085-0.254c0.085-0.85,0.34-2.631,0.34-4.668
	C265.816,253.977,265.647,252.195,265.477,251.347z M258.858,256.438l-3.989,2.886c-0.084,0.085-0.169,0.085-0.254,0.085
	s-0.169,0-0.254-0.085c-0.17-0.085-0.254-0.255-0.254-0.424v-5.771c0-0.17,0.084-0.34,0.254-0.425c0.169-0.085,0.339-0.085,0.509,0
	l3.989,2.886c0.085,0.084,0.282,0.231,0.282,0.424S259.027,256.354,258.858,256.438z"/>
<path fill="#CA3737" d="M749,116c141.391,0,256,114.613,256,256c0,141.383-114.609,256-256,256c-141.387,0-256-114.617-256-256
	C493,230.613,607.613,116,749,116z"/>
</svg>
