<?xml version="1.0" encoding="utf-8"?>
<!-- Generator: Adobe Illustrator 14.0.0, SVG Export Plug-In . SVG Version: 6.00 Build 43363)  -->
<!DOCTYPE svg PUBLIC "-//W3C//DTD SVG 1.1//EN" "http://www.w3.org/Graphics/SVG/1.1/DTD/svg11.dtd">
<svg version="1.1" id="Layer_1" xmlns="http://www.w3.org/2000/svg" xmlns:xlink="http://www.w3.org/1999/xlink" x="0px" y="0px"
	 width="28px" height="28px" viewBox="-600 622 28 28" enable-background="new -600 622 28 28" xml:space="preserve">
<g>
	<rect x="-600" y="622" fill="#CB2027" width="28" height="28"/>
	<path fill="#FFFFFF" d="M-594,633.208c0,1.473,0.498,2.919,1.522,3.797c0.234,0.198,0.791,0.595,1.171,0.595
		c0.321,0,0.38-0.367,0.438-0.624c0.439-1.473,0.059-0.849-0.497-2.068c-0.585-1.247-0.205-3.259,0.497-4.251
		c1.315-1.955,2.837-2.664,5.325-2.664c1.404,0,2.486,0.511,3.276,1.162c2.81,2.296,0.878,9.663-2.545,9.296
		c-3.425-0.37-0.646-4.421-0.646-6.206c0-2.75-3.919-2.324-3.919,1.19c0,1.218,0.498,1.559,0.41,1.871
		c-0.526,1.7-0.877,3.627-1.347,5.411c-0.496,1.815-0.438,3.346-0.293,5.188c0,0.028,0.029,0.085,0.088,0.085
		c0.059,0.028,0.089,0,0.118-0.027c1.345-1.305,2.193-3.401,2.516-4.677c0.176-0.652,0.409-1.445,0.556-2.126
		c0.028-0.113,0.323,0.256,0.497,0.425c1.405,1.247,3.861,0.965,5.413,0.059c3.041-1.787,4.331-6.831,2.721-9.863
		c-0.468-0.85-0.907-1.247-1.551-1.926c-2.634-2.58-8.367-2.41-11.177,0.169C-592.945,629.381-594,630.969-594,633.208L-594,633.208
		z"/>
</g>
</svg>
