<?xml version="1.0" encoding="utf-8"?>
<!-- Generator: Adobe Illustrator 14.0.0, SVG Export Plug-In . SVG Version: 6.00 Build 43363)  -->
<!DOCTYPE svg PUBLIC "-//W3C//DTD SVG 1.1//EN" "http://www.w3.org/Graphics/SVG/1.1/DTD/svg11.dtd">
<svg version="1.1" id="Layer_1" xmlns="http://www.w3.org/2000/svg" xmlns:xlink="http://www.w3.org/1999/xlink" x="0px" y="0px"
	 width="28px" height="28px" viewBox="-600 622 28 28" enable-background="new -600 622 28 28" xml:space="preserve">
<g>
	<rect x="-600" y="622" fill="#DD4B39" width="28" height="28"/>
	<path fill="#FFFFFF" d="M-574.043,635.22c-0.039-0.494-0.1-0.987-0.188-1.474c-3.838,0-7.684,0-11.521,0
		c0,1.561,0,3.122-0.007,4.683c0.003,0,0.005,0,0.007,0c0,0.002,0,0.004,0,0.006c2.223,0,4.445,0,6.668,0
		c-0.259,1.493-1.164,2.855-2.443,3.7c-0.001-0.002-0.003-0.003-0.005-0.003c-0.809,0.534-1.736,0.877-2.698,1.044
		c-0.969,0.162-1.962,0.188-2.923-0.006c-0.975-0.194-1.91-0.594-2.725-1.155c-1.206-0.828-2.14-2.011-2.68-3.352
		c-0.042-0.105-0.082-0.211-0.119-0.318c-0.001-0.004-0.002-0.008-0.004-0.012c0.004-0.003,0.007-0.005,0.011-0.008
		c-0.525-1.492-0.526-3.158-0.004-4.658c0.37-1.055,0.974-2.026,1.775-2.824c0.988-0.994,2.271-1.703,3.66-1.993
		c1.186-0.246,2.437-0.2,3.594,0.142c0.987,0.291,1.896,0.826,2.642,1.523c0.749-0.736,1.5-1.471,2.25-2.207
		c0.395-0.394,0.81-0.774,1.19-1.18c0-0.001-0.002-0.002-0.003-0.003c0.001-0.001,0.003-0.003,0.003-0.004
		c-1.144-1.039-2.479-1.864-3.942-2.393c-2.633-0.948-5.602-0.967-8.248-0.071c-2.982,1-5.523,3.187-6.938,5.954
		c-0.494,0.955-0.85,1.967-1.066,3.019c-0.541,2.606-0.165,5.386,1.06,7.76c0.796,1.548,1.942,2.928,3.324,4.006
		c1.311,1.02,2.831,1.78,4.451,2.199c2.04,0.536,4.213,0.522,6.266,0.064c1.857-0.419,3.615-1.29,5.017-2.555
		c1.482-1.335,2.54-3.09,3.101-4.979C-574.069,638.54-573.915,636.87-574.043,635.22z"/>
</g>
</svg>
