<?xml version="1.0" encoding="utf-8"?>
<!-- Generator: Adobe Illustrator 14.0.0, SVG Export Plug-In . SVG Version: 6.00 Build 43363)  -->
<!DOCTYPE svg PUBLIC "-//W3C//DTD SVG 1.1//EN" "http://www.w3.org/Graphics/SVG/1.1/DTD/svg11.dtd">
<svg version="1.1" id="Layer_1" xmlns="http://www.w3.org/2000/svg" xmlns:xlink="http://www.w3.org/1999/xlink" x="0px" y="0px"
	 width="28px" height="28px" viewBox="242 242 28 28" enable-background="new 242 242 28 28" xml:space="preserve">
<rect x="242" y="242" fill="#55ACEE" width="28" height="28"/>
<path fill="#FFFFFF" d="M264.738,250.658c-0.644,0.281-1.334,0.47-2.062,0.555c0.744-0.436,1.312-1.128,1.58-1.952
	c-0.691,0.403-1.461,0.698-2.278,0.855c-0.655-0.687-1.587-1.116-2.619-1.116c-1.982,0-3.588,1.581-3.588,3.533
	c0,0.274,0.032,0.547,0.091,0.807c-2.98-0.15-5.625-1.557-7.395-3.693c-0.308,0.522-0.487,1.128-0.487,1.778
	c0,1.224,0.636,2.306,1.597,2.939c-0.588-0.019-1.142-0.178-1.625-0.442c-0.001,0.016-0.001,0.03-0.001,0.045
	c0,1.71,1.237,3.14,2.879,3.464c-0.3,0.079-0.617,0.125-0.946,0.125c-0.231,0-0.455-0.021-0.674-0.062
	c0.455,1.402,1.78,2.425,3.35,2.453c-1.224,0.947-2.772,1.513-4.453,1.513c-0.289,0-0.576-0.015-0.856-0.05
	c1.587,1.003,3.475,1.587,5.501,1.587c6.599,0,10.208-5.385,10.208-10.055c0-0.151-0.004-0.306-0.01-0.456
	C263.648,251.987,264.258,251.365,264.738,250.658z"/>
</svg>
