<?xml version="1.0" encoding="utf-8"?>
<!-- Generator: Adobe Illustrator 14.0.0, SVG Export Plug-In . SVG Version: 6.00 Build 43363)  -->
<!DOCTYPE svg PUBLIC "-//W3C//DTD SVG 1.1//EN" "http://www.w3.org/Graphics/SVG/1.1/DTD/svg11.dtd">
<svg version="1.1" id="Layer_1" xmlns="http://www.w3.org/2000/svg" xmlns:xlink="http://www.w3.org/1999/xlink" x="0px" y="0px"
	 width="28px" height="28px" viewBox="-786 436 28 28" enable-background="new -786 436 28 28" xml:space="preserve">
<g>
	<rect x="-786" y="436" fill="#BB0000" width="28" height="28"/>
	<path fill="#FFFFFF" d="M-762.523,445.348c0-0.086,0-0.171-0.084-0.256v-0.084c-0.254-0.764-0.934-1.273-1.781-1.273h0.172
		c0,0-3.312-0.508-7.811-0.508c-4.412,0-7.807,0.508-7.807,0.508h0.169c-0.849,0-1.526,0.511-1.78,1.273v0.084
		c0,0.085,0,0.17-0.086,0.256c-0.084,0.848-0.339,2.629-0.339,4.666s0.255,3.818,0.339,4.668c0,0.086,0,0.17,0.086,0.254v0.086
		c0.254,0.765,0.932,1.272,1.78,1.272h-0.169c0,0,3.311,0.508,7.807,0.508c4.412,0,7.811-0.508,7.811-0.508h-0.172
		c0.85,0,1.527-0.51,1.781-1.272v-0.086c0-0.084,0-0.168,0.084-0.254c0.086-0.85,0.34-2.631,0.34-4.668
		S-762.354,446.195-762.523,445.348z M-769.143,450.438l-3.988,2.888c-0.084,0.085-0.169,0.085-0.254,0.085s-0.17,0-0.254-0.085
		c-0.17-0.087-0.254-0.257-0.254-0.425v-5.771c0-0.17,0.084-0.34,0.254-0.425c0.169-0.085,0.339-0.085,0.509,0l3.989,2.886
		c0.084,0.084,0.281,0.229,0.281,0.425C-768.859,450.209-768.973,450.354-769.143,450.438z"/>
</g>
</svg>
