<?xml version="1.0" encoding="utf-8"?>
<!-- Generator: Adobe Illustrator 16.0.0, SVG Export Plug-In . SVG Version: 6.00 Build 0)  -->
<!DOCTYPE svg PUBLIC "-//W3C//DTD SVG 1.1//EN" "http://www.w3.org/Graphics/SVG/1.1/DTD/svg11.dtd">
<svg version="1.1" id="Capa_1" xmlns="http://www.w3.org/2000/svg" xmlns:xlink="http://www.w3.org/1999/xlink" x="0px" y="0px"
	 width="400px" height="400px" viewBox="0 0 400 400" enable-background="new 0 0 400 400" xml:space="preserve">
<g>
	<polygon fill-rule="evenodd" clip-rule="evenodd" fill="#FAD1CB" points="261.605,32.803 239.309,38.784 233.35,16.401 
		211.053,22.383 205.094,0 115.906,23.926 121.864,46.31 99.567,52.291 105.526,74.674 83.229,80.656 77.271,58.273 54.974,64.255 
		60.932,86.638 16.338,98.602 22.297,120.984 0,126.966 17.876,194.115 40.173,188.133 46.132,210.517 90.726,198.553 
		102.643,243.319 80.346,249.301 86.305,271.684 64.008,277.666 87.842,367.198 110.139,361.216 116.098,383.599 138.395,377.616 
		144.354,400 188.948,388.037 182.989,365.654 316.771,329.764 322.729,352.147 367.323,340.185 361.364,317.8 383.662,311.819 
		377.703,289.437 400,283.454 376.165,193.922 353.868,199.904 347.909,177.521 325.612,183.502 313.695,138.736 358.289,126.773 
		352.331,104.39 374.628,98.408 356.752,31.259 334.455,37.241 328.496,14.858 283.902,26.821 277.943,4.438 255.646,10.42 	"/>
	<polygon fill-rule="evenodd" clip-rule="evenodd" fill="#444444" points="115.906,23.926 205.094,0 211.053,22.383 121.864,46.31 	
		"/>
	<polygon fill-rule="evenodd" clip-rule="evenodd" fill="#E46E52" points="121.864,46.31 127.823,68.693 105.526,74.674 
		111.485,97.057 245.267,61.167 239.309,38.784 217.012,44.766 211.053,22.383 	"/>
	<polygon fill-rule="evenodd" clip-rule="evenodd" fill="#444444" points="191.831,219.393 185.872,197.009 163.575,202.991 
		157.617,180.608 246.805,156.681 252.764,179.065 230.467,185.046 236.425,207.429 	"/>
	<polygon fill-rule="evenodd" clip-rule="evenodd" fill="#E46E52" points="209.707,286.541 203.748,264.158 181.451,270.141 
		175.493,247.757 264.681,223.83 270.639,246.213 248.342,252.195 254.301,274.578 	"/>
	<polygon fill-rule="evenodd" clip-rule="evenodd" fill="#444444" points="99.567,52.291 121.864,46.31 127.823,68.693 
		105.526,74.674 	"/>
	<polygon fill-rule="evenodd" clip-rule="evenodd" fill="#444444" points="54.974,64.255 77.271,58.273 83.229,80.656 
		60.932,86.638 	"/>
	<polygon fill-rule="evenodd" clip-rule="evenodd" fill="#444444" points="16.338,98.602 60.932,86.638 66.891,109.021 
		22.297,120.984 	"/>
	<polygon fill-rule="evenodd" clip-rule="evenodd" fill="#444444" points="40.173,188.133 84.767,176.17 90.726,198.553 
		46.132,210.517 	"/>
	<polygon fill-rule="evenodd" clip-rule="evenodd" fill="#444444" points="211.053,22.383 233.35,16.401 239.309,38.784 
		217.012,44.766 	"/>
	<polygon fill-rule="evenodd" clip-rule="evenodd" fill="#444444" points="83.229,80.656 105.526,74.674 117.443,119.441 
		95.146,125.422 	"/>
	<polygon fill-rule="evenodd" clip-rule="evenodd" fill="#444444" points="0,126.966 22.297,120.984 40.173,188.133 17.876,194.115 
			"/>
	<polygon fill-rule="evenodd" clip-rule="evenodd" fill="#444444" points="101.105,147.805 107.064,170.188 129.361,164.207 
		135.319,186.59 157.617,180.608 145.699,135.842 	"/>
	<polygon fill-rule="evenodd" clip-rule="evenodd" fill="#444444" points="277.943,4.438 255.646,10.42 261.605,32.803 
		283.902,26.821 	"/>
	<polygon fill-rule="evenodd" clip-rule="evenodd" fill="#444444" points="328.496,14.858 283.902,26.821 289.86,49.205 
		334.455,37.241 	"/>
	<polygon fill-rule="evenodd" clip-rule="evenodd" fill="#444444" points="352.331,104.39 307.736,116.353 313.695,138.736 
		358.289,126.773 	"/>
	<polygon fill-rule="evenodd" clip-rule="evenodd" fill="#444444" points="356.752,31.259 334.455,37.241 352.331,104.39 
		374.628,98.408 	"/>
	<polygon fill-rule="evenodd" clip-rule="evenodd" fill="#444444" points="279.481,99.952 285.439,122.335 263.143,128.317 
		269.102,150.7 246.805,156.681 234.887,111.915 	"/>
	<polygon fill-rule="evenodd" clip-rule="evenodd" fill="#444444" points="133.782,91.076 156.079,85.094 167.996,129.86 
		145.699,135.842 	"/>
	<polygon fill-rule="evenodd" clip-rule="evenodd" fill="#444444" points="200.673,73.131 222.97,67.149 234.887,111.915 
		212.59,117.896 	"/>
	<polygon fill-rule="evenodd" clip-rule="evenodd" fill="#444444" points="239.309,38.784 261.605,32.803 273.522,77.569 
		251.226,83.55 	"/>
	<polygon fill-rule="evenodd" clip-rule="evenodd" fill="#444444" points="80.346,249.301 86.305,271.684 130.898,259.721 
		136.857,282.103 159.154,276.122 182.989,365.654 316.771,329.764 292.937,240.232 315.233,234.25 309.274,211.867 
		353.868,199.904 347.909,177.521 325.612,183.502 313.695,138.736 291.398,144.718 297.357,167.101 275.061,173.083 
		281.019,195.466 258.722,201.447 270.639,246.213 248.342,252.195 254.301,274.578 209.707,286.541 203.748,264.158 
		181.451,270.141 169.534,225.374 147.237,231.355 141.278,208.973 118.981,214.955 113.022,192.572 90.726,198.553 
		102.643,243.319 	"/>
	<polygon fill-rule="evenodd" clip-rule="evenodd" fill="#444444" points="138.395,377.616 182.989,365.654 188.948,388.037 
		144.354,400 	"/>
	<polygon fill-rule="evenodd" clip-rule="evenodd" fill="#444444" points="316.771,329.764 361.364,317.8 367.323,340.185 
		322.729,352.147 	"/>
	<polygon fill-rule="evenodd" clip-rule="evenodd" fill="#444444" points="110.139,361.216 132.437,355.234 138.395,377.616 
		116.098,383.599 	"/>
	<polygon fill-rule="evenodd" clip-rule="evenodd" fill="#444444" points="355.406,295.418 377.703,289.437 383.662,311.819 
		361.364,317.8 	"/>
	<polygon fill-rule="evenodd" clip-rule="evenodd" fill="#444444" points="64.008,277.666 86.305,271.684 110.139,361.216 
		87.842,367.198 	"/>
	<polygon fill-rule="evenodd" clip-rule="evenodd" fill="#444444" points="353.868,199.904 376.165,193.922 400,283.454 
		377.703,289.437 	"/>
	<polygon fill-rule="evenodd" clip-rule="evenodd" fill="#FAD1CB" points="187.41,292.523 209.707,286.541 215.666,308.925 
		193.369,314.906 	"/>
	<polygon fill-rule="evenodd" clip-rule="evenodd" fill="#FAD1CB" points="254.301,274.578 276.598,268.596 282.557,290.979 
		260.26,296.961 	"/>
	<polygon fill-rule="evenodd" clip-rule="evenodd" fill="#E46E52" points="72.85,131.404 78.808,153.787 56.511,159.769 
		62.47,182.151 84.767,176.17 90.726,198.553 113.022,192.572 95.146,125.422 	"/>
	<polygon fill-rule="evenodd" clip-rule="evenodd" fill="#E46E52" points="110.139,361.216 132.437,355.234 138.395,377.616 
		182.989,365.654 159.154,276.122 136.857,282.103 130.898,259.721 86.305,271.684 	"/>
	<polygon fill-rule="evenodd" clip-rule="evenodd" fill="#E46E52" points="377.703,289.437 355.406,295.418 361.364,317.8 
		316.771,329.764 292.937,240.232 315.233,234.25 309.274,211.867 353.868,199.904 	"/>
	<polygon fill-rule="evenodd" clip-rule="evenodd" fill="#E46E52" points="295.819,71.587 301.778,93.97 324.075,87.989 
		330.033,110.372 307.736,116.353 313.695,138.736 291.398,144.718 273.522,77.569 	"/>
</g>
</svg>
