<?xml version="1.0" encoding="utf-8"?>
<!-- Generator: Adobe Illustrator 16.0.0, SVG Export Plug-In . SVG Version: 6.00 Build 0)  -->
<!DOCTYPE svg PUBLIC "-//W3C//DTD SVG 1.1//EN" "http://www.w3.org/Graphics/SVG/1.1/DTD/svg11.dtd">
<svg version="1.1" id="Capa_1" xmlns="http://www.w3.org/2000/svg" xmlns:xlink="http://www.w3.org/1999/xlink" x="0px" y="0px"
	 width="200px" height="96px" viewBox="0 0 200 96" enable-background="new 0 0 200 96" xml:space="preserve">
<g>
	<rect x="110.243" y="8.814" fill="#3E9B29" width="80.974" height="81.305"/>
	<polygon fill-rule="evenodd" clip-rule="evenodd" fill="#28952B" points="197.072,1.958 197.072,0 195.125,0 106.342,0 104.387,0 
		104.387,1.958 106.342,1.958 106.342,3.916 108.289,3.916 108.289,5.88 193.171,5.88 193.171,3.916 195.125,3.916 195.125,1.958 	
		"/>
	<polygon fill-rule="evenodd" clip-rule="evenodd" fill="#28952B" points="198.046,96 200,96 200,94.043 200,4.898 200,2.941 
		198.046,2.941 198.046,4.898 196.099,4.898 196.099,6.856 194.144,6.856 194.144,92.084 196.099,92.084 196.099,94.043 
		198.046,94.043 	"/>
	<rect x="183.414" y="12.737" fill="#FFFFFF" width="3.901" height="3.916"/>
	<rect x="114.145" y="12.737" fill="#FFFFFF" width="3.902" height="3.916"/>
	<g>
		<rect x="114.145" y="39.67" fill-rule="evenodd" clip-rule="evenodd" fill="#FFFFFF" width="7.809" height="3.923"/>
		<rect x="114.145" y="47.508" fill-rule="evenodd" clip-rule="evenodd" fill="#FFFFFF" width="7.809" height="3.924"/>
		<rect x="114.145" y="55.348" fill-rule="evenodd" clip-rule="evenodd" fill="#FFFFFF" width="7.809" height="3.916"/>
		<rect x="121.953" y="43.593" fill-rule="evenodd" clip-rule="evenodd" fill="#FFFFFF" width="3.902" height="3.915"/>
		<rect x="133.658" y="39.67" fill-rule="evenodd" clip-rule="evenodd" fill="#FFFFFF" width="3.9" height="3.923"/>
		<rect x="110.243" y="43.593" fill-rule="evenodd" clip-rule="evenodd" fill="#FFFFFF" width="3.856" height="11.754"/>
		<rect x="157.071" y="39.67" fill-rule="evenodd" clip-rule="evenodd" fill="#FFFFFF" width="11.712" height="3.923"/>
		<rect x="157.071" y="55.348" fill-rule="evenodd" clip-rule="evenodd" fill="#FFFFFF" width="11.712" height="3.916"/>
		<rect x="153.171" y="43.593" fill-rule="evenodd" clip-rule="evenodd" fill="#FFFFFF" width="3.9" height="11.754"/>
		<rect x="168.783" y="43.593" fill-rule="evenodd" clip-rule="evenodd" fill="#FFFFFF" width="3.901" height="11.754"/>
		<rect x="129.756" y="43.593" fill-rule="evenodd" clip-rule="evenodd" fill="#FFFFFF" width="3.902" height="15.67"/>
		<rect x="145.369" y="39.67" fill-rule="evenodd" clip-rule="evenodd" fill="#FFFFFF" width="3.9" height="3.923"/>
		<rect x="141.46" y="43.593" fill-rule="evenodd" clip-rule="evenodd" fill="#FFFFFF" width="3.909" height="15.67"/>
		<rect x="180.486" y="39.67" fill-rule="evenodd" clip-rule="evenodd" fill="#FFFFFF" width="3.902" height="3.923"/>
		<rect x="176.585" y="43.593" fill-rule="evenodd" clip-rule="evenodd" fill="#FFFFFF" width="3.901" height="15.67"/>
	</g>
	<path fill-rule="evenodd" clip-rule="evenodd" fill="#1C1A1B" d="M50.441,65.635c11.711,0,14.434-9.531,14.434-20.9
		c0-11.248-2.723-20.243-14.434-20.243c-11.932,0-14.829,8.996-14.829,20.243C35.612,56.104,38.51,65.635,50.441,65.635z
		 M50.441,30.856c5.277,0,6.661,5.972,6.661,13.878c0,7.916-1.384,14.537-6.661,14.537c-5.271,0-6.662-6.621-6.662-14.537
		C43.779,36.828,45.171,30.856,50.441,30.856z"/>
	<path fill-rule="evenodd" clip-rule="evenodd" fill="#1C1A1B" d="M88.29,25.466L69.757,48.982v6.365H88.29v9.305h7.322v-9.305
		h4.875v-6.365h-4.875V25.466H88.29z M77.072,48.982L88.29,35.263v13.719H77.072z"/>
	<path fill-rule="evenodd" clip-rule="evenodd" fill="#1C1A1B" d="M18.54,25.466L0,48.982v6.365h18.54v9.305h7.315v-9.305h4.875
		v-6.365h-4.875V25.466H18.54z M7.315,48.982L18.54,35.263v13.719H7.315z"/>
</g>
</svg>
