<?xml version="1.0" encoding="utf-8"?>
<!-- Generator: Adobe Illustrator 16.0.0, SVG Export Plug-In . SVG Version: 6.00 Build 0)  -->
<!DOCTYPE svg PUBLIC "-//W3C//DTD SVG 1.1//EN" "http://www.w3.org/Graphics/SVG/1.1/DTD/svg11.dtd">
<svg version="1.1" id="Capa_1" xmlns="http://www.w3.org/2000/svg" xmlns:xlink="http://www.w3.org/1999/xlink" x="0px" y="0px"
	 width="150px" height="92px" viewBox="0 0 150 92" enable-background="new 0 0 150 92" xml:space="preserve">
<rect x="63.356" y="8.101" fill="#80B851" width="77.992" height="77.87"/>
<rect x="141.95" y="4.014" fill="#73B352" width="2.021" height="2.016"/>
<rect x="143.971" y="1.998" fill="#73B352" width="2.019" height="2.016"/>
<rect x="145.971" fill="#73B352" width="2.02" height="2.016"/>
<rect x="61.336" y="4.014" fill="#73B352" width="2.019" height="2.016"/>
<rect x="59.318" y="1.998" fill="#73B352" width="2.019" height="2.016"/>
<rect x="57.317" fill="#73B352" width="2.019" height="2.016"/>
<rect x="143.961" y="6.021" fill="#73B352" width="2.02" height="2.016"/>
<rect x="145.98" y="4.005" fill="#73B352" width="2.019" height="2.016"/>
<rect x="147.981" y="2.007" fill="#73B352" width="2.019" height="2.016"/>
<rect x="143.961" y="85.971" fill="#73B352" width="2.02" height="2.016"/>
<rect x="145.98" y="87.986" fill="#73B352" width="2.019" height="2.016"/>
<rect x="147.981" y="89.984" fill="#73B352" width="2.019" height="2.016"/>
<polygon fill="#73B352" points="143.961,85.971 143.961,8.036 150,2.007 150,92 "/>
<polygon fill="#73B352" points="147.99,0 57.316,0 63.356,6.029 141.951,6.029 "/>
<path fill="#272425" d="M8.74,29.372c2.539,0,4.494,1.039,6.034,2.95c0.292,0.375,0.208,0.873-0.167,1.164l-1.374,1.247
	c-0.5,0.458-0.791,0.125-1.123-0.167c-0.75-0.831-1.956-1.579-3.33-1.579c-2.706,0-4.828,2.285-4.828,5.111
	c0,2.867,2.081,5.151,4.786,5.151c2.122,0,2.997-1.08,3.87-1.911c0.375-0.374,0.749-0.374,1.124-0.083l1.124,0.915
	c0.416,0.333,0.583,0.748,0.291,1.163c-1.332,2.12-3.579,3.49-6.451,3.49C4.036,46.823,0,43.125,0,38.139
	C0,33.236,4.12,29.372,8.74,29.372"/>
<path fill="#272425" d="M19.062,30.577c0-0.416,0.375-0.79,0.79-0.79h2.372c0.417,0,0.791,0.374,0.791,0.79v8.518
	c0,2.701,1.29,4.155,3.413,4.155c2.456,0,3.996-1.994,4.12-2.742v-9.931c0-0.665,0.333-0.79,0.916-0.79h2.165
	c0.416,0,0.791,0.374,0.791,0.79v15.042c0,0.416-0.375,0.79-0.791,0.79h-1.166c-0.417,0-0.624-0.291-0.749-0.665l-0.417-1.205
	c-0.375,0.333-2.123,2.286-5.493,2.286c-4.995,0-6.742-3.533-6.742-7.854V30.577z"/>
<path fill="#272425" d="M39.829,18.111c0-0.416,0.375-0.79,0.791-0.79h2.372c0.417,0,0.791,0.374,0.791,0.79v27.508
	c0,0.416-0.375,0.79-0.791,0.79h-2.372c-0.416,0-0.791-0.374-0.791-0.79V18.111z"/>
<path fill="#272425" d="M50.275,33.236h-1.748c-0.458,0-0.791-0.374-0.791-0.79v-1.87c0-0.457,0.333-0.79,0.791-0.79h1.748v-4.612
	c0-0.416,0.375-0.79,0.79-0.79l2.373-0.042c0.417,0,0.749,0.374,0.749,0.79v4.654h4.245c0.458,0,0.791,0.333,0.791,0.79v1.87
	c0,0.416-0.333,0.79-0.791,0.79h-4.245v8.227c0,1.413,0.541,1.662,1.332,1.662c0.874,0,2.04-0.499,2.539-0.748
	c0.541-0.25,0.79,0,0.957,0.374l0.749,1.828c0.208,0.457,0.042,0.79-0.375,0.998c-0.417,0.249-2.872,1.246-4.87,1.246
	c-3.288,0-4.245-1.994-4.245-4.944V33.236z"/>
<path fill="#FFFFFF" d="M66.53,30.577c0-0.416,0.375-0.79,0.791-0.79h2.372c0.417,0,0.792,0.374,0.792,0.79v8.518
	c0,2.701,1.29,4.155,3.412,4.155c2.456,0,3.996-1.994,4.121-2.742v-9.931c0-0.665,0.332-0.79,0.915-0.79h2.164
	c0.416,0,0.791,0.374,0.791,0.79v15.042c0,0.416-0.375,0.79-0.791,0.79h-1.165c-0.416,0-0.624-0.291-0.748-0.665l-0.417-1.205
	c-0.375,0.333-2.122,2.286-5.494,2.286c-4.995,0-6.742-3.533-6.742-7.854V30.577z"/>
<path fill="#FFFFFF" d="M87.298,30.577c0-0.416,0.374-0.79,0.79-0.79h1.207c0.291,0,0.625,0.25,0.708,0.582l0.457,1.413
	c0.292-0.416,1.832-2.41,4.87-2.41c1.58,0,3.495,0.415,3.038,1.538l-0.999,2.036c-0.207,0.457-0.624,0.54-0.999,0.374
	c-0.249-0.125-0.874-0.292-1.415-0.292c-2.414,0-3.579,1.746-3.746,2.037v10.554c0,0.707-0.457,0.79-1.124,0.79h-1.997
	c-0.416,0-0.79-0.374-0.79-0.79V30.577z"/>
<path fill="#FFFFFF" d="M106.733,35.896c1.748,0,3.287,0.499,3.287,0.499c0.042-2.618-0.457-3.657-2.58-3.657
	c-1.914,0-3.786,0.499-4.66,0.748c-0.5,0.125-0.791-0.208-0.916-0.665l-0.333-1.537c-0.125-0.541,0.166-0.832,0.54-0.957
	c0.293-0.125,2.665-0.955,5.744-0.955c5.326,0,5.826,3.241,5.826,7.396v8.851c0,0.416-0.375,0.79-0.79,0.79h-1.165
	c-0.375,0-0.542-0.166-0.708-0.581l-0.416-1.123c-0.916,0.873-2.539,2.12-5.119,2.12c-3.121,0-5.369-2.12-5.369-5.568
	C100.074,38.223,102.488,35.896,106.733,35.896 M106.233,43.874c1.665,0,3.246-1.247,3.746-2.078v-2.66
	c-0.25-0.166-1.415-0.665-2.914-0.665c-1.997,0-3.37,1.039-3.37,2.743C103.695,42.71,104.694,43.874,106.233,43.874"/>
<path fill="#FFFFFF" d="M63.342,85.971V54.175h4.549v13.627h4.55v4.541h-4.55v9.085h13.647v4.543H63.342z M72.441,63.258h9.099
	v4.544h-9.099V63.258z M81.539,67.802h4.551v13.626h-4.551V67.802z"/>
<path fill="#FFFFFF" d="M90.639,58.782h4.55v4.527h-4.55V58.782z M90.639,67.747h4.55v18.224h-4.55V67.747z"/>
<path fill="#FFFFFF" d="M104.288,81.428v-18.17h-4.549v-4.541h4.549v-4.542h4.55v4.542h4.55v4.541h-4.55v18.17H104.288z
	 M108.838,81.428h4.55v4.543h-4.55V81.428z"/>
<rect x="134.093" y="11.814" fill="#FFFFFF" width="3.781" height="3.776"/>
<rect x="67.424" y="11.836" fill="#FFFFFF" width="3.781" height="3.775"/>
<rect x="134.114" y="78.379" fill="#FFFFFF" width="3.78" height="3.775"/>
</svg>
